ISO-10303-21;
HEADER;
FILE_DESCRIPTION (( 'STEP AP214' ),
    '1' );
FILE_NAME ('cylindre.STEP',
    '2025-10-22T22:15:03',
    ( '' ),
    ( '' ),
    'SwSTEP 2.0',
    'SolidWorks 2024',
    '' );
FILE_SCHEMA (( 'AUTOMOTIVE_DESIGN' ));
ENDSEC;

DATA;
#1 = CLOSED_SHELL ( 'NONE', ( #102, #15, #48, #55 ) ) ;
#2 = VERTEX_POINT ( 'NONE', #23 ) ;
#3 = PLANE ( 'NONE',  #74 ) ;
#4 = CIRCLE ( 'NONE', #73, 9.999999999999998224 ) ;
#5 = CARTESIAN_POINT ( 'NONE',  ( 0.000000000000000000, 0.000000000000000000, 40.00000000000000000 ) ) ;
#6 = PRESENTATION_STYLE_ASSIGNMENT (( #110 ) ) ;
#7 = DIRECTION ( 'NONE',  ( -1.000000000000000000, 0.000000000000000000, 0.000000000000000000 ) ) ;
#8 = ORIENTED_EDGE ( 'NONE', *, *, #84, .T. ) ;
#9 = AXIS2_PLACEMENT_3D ( 'NONE', #120, #119, #63 ) ;
#10 = EDGE_LOOP ( 'NONE', ( #70, #37 ) ) ;
#11 = CARTESIAN_POINT ( 'NONE',  ( 0.000000000000000000, 0.000000000000000000, 0.000000000000000000 ) ) ;
#12 = CARTESIAN_POINT ( 'NONE',  ( 9.999999999999998224, 1.224646799147353059E-15, 40.00000000000000000 ) ) ;
#13 = EDGE_CURVE ( 'NONE', #29, #117, #69, .T. ) ;
#14 = DIRECTION ( 'NONE',  ( 0.000000000000000000, 0.000000000000000000, 1.000000000000000000 ) ) ;
#15 = ADVANCED_FACE ( 'NONE', ( #49 ), #60, .T. ) ;
#16 =( LENGTH_UNIT ( ) NAMED_UNIT ( * ) SI_UNIT ( .MILLI., .METRE. ) );
#17 = FACE_OUTER_BOUND ( 'NONE', #56, .T. ) ;
#18 = ORIENTED_EDGE ( 'NONE', *, *, #13, .T. ) ;
#19 = ORIENTED_EDGE ( 'NONE', *, *, #72, .F. ) ;
#20 = PRODUCT_DEFINITION_FORMATION_WITH_SPECIFIED_SOURCE ( 'ANY', '', #98, .NOT_KNOWN. ) ;
#21 = DIRECTION ( 'NONE',  ( 1.000000000000000000, 0.000000000000000000, -0.000000000000000000 ) ) ;
#22 =( LENGTH_UNIT ( ) NAMED_UNIT ( * ) SI_UNIT ( .MILLI., .METRE. ) );
#23 = CARTESIAN_POINT ( 'NONE',  ( -9.999999999999998224, 0.000000000000000000, 40.00000000000000000 ) ) ;
#24 = CIRCLE ( 'NONE', #122, 9.999999999999998224 ) ;
#25 = CARTESIAN_POINT ( 'NONE',  ( 9.999999999999998224, 1.224646799147353059E-15, 40.00000000000000000 ) ) ;
#26 = UNCERTAINTY_MEASURE_WITH_UNIT (LENGTH_MEASURE( 1.000000000000000082E-05 ), #22, 'distance_accuracy_value', 'NONE');
#27 = CIRCLE ( 'NONE', #93, 9.999999999999998224 ) ;
#28 = DIRECTION ( 'NONE',  ( -0.000000000000000000, -0.000000000000000000, -1.000000000000000000 ) ) ;
#29 = VERTEX_POINT ( 'NONE', #86 ) ;
#30 = ORIENTED_EDGE ( 'NONE', *, *, #44, .F. ) ;
#31 = DIRECTION ( 'NONE',  ( 1.000000000000000000, 0.000000000000000000, 0.000000000000000000 ) ) ;
#32 =( NAMED_UNIT ( * ) PLANE_ANGLE_UNIT ( ) SI_UNIT ( $, .RADIAN. ) );
#33 = STYLED_ITEM ( 'NONE', ( #6 ), #104 ) ;
#34 = SURFACE_SIDE_STYLE ('',( #47 ) ) ;
#35 = AXIS2_PLACEMENT_3D ( 'NONE', #36, #51, #7 ) ;
#36 = CARTESIAN_POINT ( 'NONE',  ( 0.000000000000000000, 0.000000000000000000, 40.00000000000000000 ) ) ;
#37 = ORIENTED_EDGE ( 'NONE', *, *, #84, .F. ) ;
#38 = APPLICATION_PROTOCOL_DEFINITION ( 'draft international standard', 'automotive_design', 1998, #46 ) ;
#39 =( GEOMETRIC_REPRESENTATION_CONTEXT ( 3 ) GLOBAL_UNCERTAINTY_ASSIGNED_CONTEXT ( ( #107 ) ) GLOBAL_UNIT_ASSIGNED_CONTEXT ( ( #16, #85, #123 ) ) REPRESENTATION_CONTEXT ( 'NONE', 'WORKASPACE' ) );
#40 = AXIS2_PLACEMENT_3D ( 'NONE', #114, #118, #50 ) ;
#41 = VECTOR ( 'NONE', #28, 1000.000000000000000 ) ;
#42 = PLANE ( 'NONE',  #9 ) ;
#43 = FILL_AREA_STYLE_COLOUR ( '', #81 ) ;
#44 = EDGE_CURVE ( 'NONE', #2, #29, #76, .T. ) ;
#45 = FILL_AREA_STYLE ('',( #43 ) ) ;
#46 = APPLICATION_CONTEXT ( 'automotive_design' ) ;
#47 = SURFACE_STYLE_FILL_AREA ( #45 ) ;
#48 = ADVANCED_FACE ( 'NONE', ( #87 ), #3, .T. ) ;
#49 = FACE_OUTER_BOUND ( 'NONE', #101, .T. ) ;
#50 = DIRECTION ( 'NONE',  ( 1.000000000000000000, 0.000000000000000000, 0.000000000000000000 ) ) ;
#51 = DIRECTION ( 'NONE',  ( -0.000000000000000000, -0.000000000000000000, -1.000000000000000000 ) ) ;
#52 = PRODUCT_DEFINITION_CONTEXT ( 'detailed design', #112, 'design' ) ;
#53 = CARTESIAN_POINT ( 'NONE',  ( 0.000000000000000000, 0.000000000000000000, 0.000000000000000000 ) ) ;
#54 = DIRECTION ( 'NONE',  ( -0.000000000000000000, -0.000000000000000000, -1.000000000000000000 ) ) ;
#55 = ADVANCED_FACE ( 'NONE', ( #99 ), #42, .F. ) ;
#56 = EDGE_LOOP ( 'NONE', ( #19, #111, #8, #30 ) ) ;
#57 =( GEOMETRIC_REPRESENTATION_CONTEXT ( 3 ) GLOBAL_UNCERTAINTY_ASSIGNED_CONTEXT ( ( #26 ) ) GLOBAL_UNIT_ASSIGNED_CONTEXT ( ( #22, #32, #89 ) ) REPRESENTATION_CONTEXT ( 'NONE', 'WORKASPACE' ) );
#58 = DIRECTION ( 'NONE',  ( 0.000000000000000000, 0.000000000000000000, 1.000000000000000000 ) ) ;
#59 = VECTOR ( 'NONE', #106, 1000.000000000000000 ) ;
#60 = CYLINDRICAL_SURFACE ( 'NONE', #35, 9.999999999999998224 ) ;
#61 = APPLICATION_PROTOCOL_DEFINITION ( 'draft international standard', 'automotive_design', 1998, #112 ) ;
#62 = DIRECTION ( 'NONE',  ( 0.000000000000000000, 0.000000000000000000, 1.000000000000000000 ) ) ;
#63 = DIRECTION ( 'NONE',  ( 1.000000000000000000, 0.000000000000000000, -0.000000000000000000 ) ) ;
#64 = DIRECTION ( 'NONE',  ( 0.000000000000000000, 0.000000000000000000, 1.000000000000000000 ) ) ;
#65 = EDGE_CURVE ( 'NONE', #90, #117, #108, .T. ) ;
#66 = DIRECTION ( 'NONE',  ( -1.000000000000000000, 0.000000000000000000, 0.000000000000000000 ) ) ;
#67 = EDGE_LOOP ( 'NONE', ( #71, #77 ) ) ;
#68 = CARTESIAN_POINT ( 'NONE',  ( 0.000000000000000000, 0.000000000000000000, 40.00000000000000000 ) ) ;
#69 = CIRCLE ( 'NONE', #109, 9.999999999999998224 ) ;
#70 = ORIENTED_EDGE ( 'NONE', *, *, #13, .F. ) ;
#71 = ORIENTED_EDGE ( 'NONE', *, *, #116, .T. ) ;
#72 = EDGE_CURVE ( 'NONE', #90, #2, #24, .T. ) ;
#73 = AXIS2_PLACEMENT_3D ( 'NONE', #5, #14, #105 ) ;
#74 = AXIS2_PLACEMENT_3D ( 'NONE', #68, #113, #21 ) ;
#75 = PRODUCT_DEFINITION ( 'UNKNOWN', '', #20, #52 ) ;
#76 = LINE ( 'NONE', #125, #41 ) ;
#77 = ORIENTED_EDGE ( 'NONE', *, *, #72, .T. ) ;
#78 = SHAPE_DEFINITION_REPRESENTATION ( #115, #83 ) ;
#79 = MECHANICAL_DESIGN_GEOMETRIC_PRESENTATION_REPRESENTATION (  '', ( #33 ), #39 ) ;
#80 = DIRECTION ( 'NONE',  ( 1.000000000000000000, 0.000000000000000000, 0.000000000000000000 ) ) ;
#81 = COLOUR_RGB ( '',0.7921568627450980005, 0.8196078431372548767, 0.9333333333333333481 ) ;
#82 = DIRECTION ( 'NONE',  ( 1.000000000000000000, 0.000000000000000000, 0.000000000000000000 ) ) ;
#83 = ADVANCED_BREP_SHAPE_REPRESENTATION ( 'cylindre', ( #104, #40 ), #57 ) ;
#84 = EDGE_CURVE ( 'NONE', #117, #29, #27, .T. ) ;
#85 =( NAMED_UNIT ( * ) PLANE_ANGLE_UNIT ( ) SI_UNIT ( $, .RADIAN. ) );
#86 = CARTESIAN_POINT ( 'NONE',  ( -9.999999999999998224, 0.000000000000000000, 0.000000000000000000 ) ) ;
#87 = FACE_OUTER_BOUND ( 'NONE', #67, .T. ) ;
#88 = PRODUCT_CONTEXT ( 'NONE', #46, 'mechanical' ) ;
#89 =( NAMED_UNIT ( * ) SI_UNIT ( $, .STERADIAN. ) SOLID_ANGLE_UNIT ( ) );
#90 = VERTEX_POINT ( 'NONE', #25 ) ;
#91 = PRESENTATION_LAYER_ASSIGNMENT (  '', '', ( #33 ) ) ;
#92 = CARTESIAN_POINT ( 'NONE',  ( 9.999999999999998224, 1.224646799147353059E-15, 0.000000000000000000 ) ) ;
#93 = AXIS2_PLACEMENT_3D ( 'NONE', #53, #64, #82 ) ;
#94 = CARTESIAN_POINT ( 'NONE',  ( 0.000000000000000000, 0.000000000000000000, 40.00000000000000000 ) ) ;
#95 = CYLINDRICAL_SURFACE ( 'NONE', #100, 9.999999999999998224 ) ;
#96 = ORIENTED_EDGE ( 'NONE', *, *, #116, .F. ) ;
#97 = ORIENTED_EDGE ( 'NONE', *, *, #65, .F. ) ;
#98 = PRODUCT ( 'cylindre', 'cylindre', '', ( #88 ) ) ;
#99 = FACE_OUTER_BOUND ( 'NONE', #10, .T. ) ;
#100 = AXIS2_PLACEMENT_3D ( 'NONE', #94, #54, #66 ) ;
#101 = EDGE_LOOP ( 'NONE', ( #97, #96, #103, #18 ) ) ;
#102 = ADVANCED_FACE ( 'NONE', ( #17 ), #95, .T. ) ;
#103 = ORIENTED_EDGE ( 'NONE', *, *, #44, .T. ) ;
#104 = MANIFOLD_SOLID_BREP ( 'Boss.-Extru.1', #1 ) ;
#105 = DIRECTION ( 'NONE',  ( 1.000000000000000000, 0.000000000000000000, 0.000000000000000000 ) ) ;
#106 = DIRECTION ( 'NONE',  ( -0.000000000000000000, -0.000000000000000000, -1.000000000000000000 ) ) ;
#107 = UNCERTAINTY_MEASURE_WITH_UNIT (LENGTH_MEASURE( 1.000000000000000082E-05 ), #16, 'distance_accuracy_value', 'NONE');
#108 = LINE ( 'NONE', #12, #59 ) ;
#109 = AXIS2_PLACEMENT_3D ( 'NONE', #11, #58, #31 ) ;
#110 = SURFACE_STYLE_USAGE ( .BOTH. , #34 ) ;
#111 = ORIENTED_EDGE ( 'NONE', *, *, #65, .T. ) ;
#112 = APPLICATION_CONTEXT ( 'automotive_design' ) ;
#113 = DIRECTION ( 'NONE',  ( 0.000000000000000000, 0.000000000000000000, 1.000000000000000000 ) ) ;
#114 = CARTESIAN_POINT ( 'NONE',  ( 0.000000000000000000, 0.000000000000000000, 0.000000000000000000 ) ) ;
#115 = PRODUCT_DEFINITION_SHAPE ( 'NONE', 'NONE',  #75 ) ;
#116 = EDGE_CURVE ( 'NONE', #2, #90, #4, .T. ) ;
#117 = VERTEX_POINT ( 'NONE', #92 ) ;
#118 = DIRECTION ( 'NONE',  ( 0.000000000000000000, 0.000000000000000000, 1.000000000000000000 ) ) ;
#119 = DIRECTION ( 'NONE',  ( 0.000000000000000000, 0.000000000000000000, 1.000000000000000000 ) ) ;
#120 = CARTESIAN_POINT ( 'NONE',  ( 0.000000000000000000, 0.000000000000000000, 0.000000000000000000 ) ) ;
#121 = CARTESIAN_POINT ( 'NONE',  ( 0.000000000000000000, 0.000000000000000000, 40.00000000000000000 ) ) ;
#122 = AXIS2_PLACEMENT_3D ( 'NONE', #121, #62, #80 ) ;
#123 =( NAMED_UNIT ( * ) SI_UNIT ( $, .STERADIAN. ) SOLID_ANGLE_UNIT ( ) );
#124 = PRODUCT_RELATED_PRODUCT_CATEGORY ( 'part', '', ( #98 ) ) ;
#125 = CARTESIAN_POINT ( 'NONE',  ( -9.999999999999998224, 0.000000000000000000, 40.00000000000000000 ) ) ;
ENDSEC;
END-ISO-10303-21;
